<svg
        width="1600"
        height="900"
        viewBox="0 -42 64 84"
        version="1.1"
        xmlns="http://www.w3.org/2000/svg">

    <text
            style="font-size:1.1245px;fill:#000000;"
            x="-28.942244"
            y="41.134018"><a href="https://mathresearch.utsa.edu/wiki/index.php?title=File:Absolute_value_composition.svg">Source: https://mathresearch.utsa.edu/wiki/index.php?title=File:Absolute_value_composition.svg</a></text>

    <g
            style="fill:#999999;stroke:#999999"
            transform="matrix(1,0,0,0.99274443,0,0.30473374)">
            <g
                    style="fill:#999999;stroke:#999999">
                <line
                        style="fill:#999999;stroke:#999999;stroke-opacity:1;image-rendering:auto; stroke-width:0.6px"
                        x1="-30"
                        y1="0"
                        x2="32"
                        y2="0"/>
                <polygon
                        style="fill:#999999;stroke:#999999;image-rendering:auto"
                        points="30,-1 33,0 30,1 "/>
            </g>
            <g
                style="fill:#999999;stroke:#999999; stroke-width:0.6px">
                <line
                    x1="0"
                    y1="42"
                    x2="0"
                    y2="-40"
                    style="fill:#999999;stroke:#999999"/>
                <polygon
                        points="-1,-38 0,-41 1,-38 "
                        style="fill:#999999;stroke:#999999"/>
            </g>
            <text
                style="font-size:4.49799197px;line-height:1.25;fill:#00cc00;fill-opacity:1;stroke:none;"
                x="29.598333"
                y="-2.1154208">C\(x\)</text>
    </g>

    <g class="fragidx-2">
    <path
            style="fill:none; stroke:#CC00FF; stroke-width:1px"
            d="m -30,36 c 10,-100 20,25 30,0 12,30 24,-156 36,90"/>
    <text
            style="font-size:3.37349px;fill:#cc00ff;stroke:none;"
            x="-21.044327"
            y="-4.4617629">\(f(|x|)\)</text>
    </g>

    <g class="fragidx-3">
    <path
            style="fill:none; stroke:#00DDDD; stroke-opacity:0.6; stroke-width:1px"
            d="m -12,-90 c 2,41 4,70 6,90 8,-80 16,-16 24,0 2,-4 4,-5 6,0 4,-10 8,-44 12,-126"/>
    <text
            style="font-style:normal;font-size:3.37349px;fill:#00dede;fill-opacity:0.6;stroke:none;"
            x="12.029474"
            y="-20.09696">L\(|f(x)|\)</text>
    </g>

    <g class="fragidx-1">
    <path
            d="M -12,-90 C 4,238 20,-202 36,126"
            style="fill:none;stroke-width:0.19996386;stroke-dasharray:none;stroke:#cccc00"/>

        <text
                style="font-size:3.37349px;fill:#cccc00;stroke:none;"
                x="-5.8079715"
                y="6.1365871">R\(f(x)\)</text>
    </g>
</svg>
